<?xml version="1.0" standalone="no"?>
<!DOCTYPE svg PUBLIC "-//W3C//DTD SVG 20010904//EN"
 "http://www.w3.org/TR/2001/REC-SVG-20010904/DTD/svg10.dtd">
<svg version="1.0" xmlns="http://www.w3.org/2000/svg"
 width="109.000000pt" height="108.000000pt" viewBox="0 0 109.000000 108.000000"
 preserveAspectRatio="xMidYMid meet">

<g transform="translate(0.000000,108.000000) scale(0.100000,-0.100000)"
fill="#000000" stroke="none">
<path d="M388 1070 c-79 -24 -136 -92 -141 -167 l-2 -38 88 -3 c85 -3 87 -3
87 -27 0 -23 -4 -25 -45 -25 l-45 0 0 -384 0 -385 26 -20 c25 -20 40 -21 214
-21 174 0 189 1 214 21 l26 20 0 385 0 384 -45 0 c-45 0 -45 0 -45 35 0 31 7
40 75 91 41 31 75 59 75 63 -1 31 -22 24 -103 -35 l-87 -64 0 -45 0 -45 -110
0 -110 0 0 25 c0 24 2 24 83 27 l82 3 3 32 c5 52 -43 129 -98 158 -34 18 -109
26 -142 15z m118 -51 c43 -20 84 -71 84 -103 0 -14 -18 -16 -155 -16 -85 0
-155 2 -155 4 0 31 15 36 116 36 97 0 104 1 104 20 0 19 -7 20 -92 20 l-93 1
30 24 c48 39 100 44 161 14z m264 -349 l0 -100 -40 20 c-50 26 -119 26 -170 0
-22 -11 -51 -20 -65 -20 -14 0 -42 9 -62 20 -21 11 -43 20 -50 20 -9 0 -13 22
-13 80 l0 80 200 0 200 0 0 -100z m-47 -120 l47 -21 -2 -242 -3 -242 -195 0
-195 0 -3 263 c-2 276 -2 280 42 247 33 -25 98 -29 142 -9 84 38 89 38 167 4z"/>
<path d="M417 733 c-4 -3 -7 -17 -7 -30 0 -16 6 -23 20 -23 11 0 20 5 20 10 0
6 7 10 15 10 8 0 15 9 15 20 0 15 -7 20 -28 20 -16 0 -32 -3 -35 -7z"/>
<path d="M447 462 c-35 -39 -10 -92 42 -92 34 0 54 21 54 55 0 14 -6 32 -13
40 -17 21 -63 19 -83 -3z m56 -37 c1 -5 -6 -11 -15 -13 -11 -2 -18 3 -18 13 0
17 30 18 33 0z"/>
<path d="M628 359 c-21 -12 -24 -69 -6 -87 17 -17 64 -15 82 4 49 48 -16 119
-76 83z m52 -42 c0 -8 -3 -17 -7 -20 -9 -9 -34 13 -27 24 8 14 34 11 34 -4z"/>
<path d="M502 213 c-22 -9 -33 -52 -21 -76 23 -42 57 -49 89 -17 47 47 -5 118
-68 93z m44 -44 c10 -17 -13 -36 -27 -22 -12 12 -4 33 11 33 5 0 12 -5 16 -11z"/>
</g>
</svg>
