<?xml version="1.0" standalone="no"?>
<!DOCTYPE svg PUBLIC "-//W3C//DTD SVG 20010904//EN"
 "http://www.w3.org/TR/2001/REC-SVG-20010904/DTD/svg10.dtd">
<svg version="1.0" xmlns="http://www.w3.org/2000/svg"
 width="152.000000pt" height="153.000000pt" viewBox="0 0 152.000000 153.000000"
 preserveAspectRatio="xMidYMid meet">

<g transform="translate(0.000000,153.000000) scale(0.100000,-0.100000)"
fill="#000000" stroke="none">
<path d="M671 1164 c-25 -9 -63 -27 -85 -41 -51 -32 -136 -113 -136 -130 0
-32 31 -21 81 27 63 60 155 108 224 116 95 11 193 -46 294 -170 21 -26 24 -27
38 -13 15 14 12 21 -23 67 -48 63 -126 124 -183 145 -55 19 -153 19 -210 -1z"/>
<path d="M684 1082 c-63 -22 -154 -90 -154 -113 0 -29 23 -28 59 4 52 45 129
77 184 77 61 0 120 -29 174 -87 27 -29 48 -43 58 -39 8 3 15 10 15 16 0 19
-93 111 -134 132 -56 29 -139 33 -202 10z"/>
<path d="M270 1063 c-52 -27 -80 -75 -80 -139 0 -47 2 -54 20 -54 16 0 20 7
20 35 0 48 23 101 51 115 12 7 43 10 70 8 86 -9 89 36 4 47 -38 5 -59 2 -85
-12z"/>
<path d="M670 987 c-41 -16 -56 -28 -58 -45 -4 -28 16 -29 68 -2 22 11 59 20
83 20 29 0 53 -7 70 -20 28 -22 43 -25 52 -10 10 16 -13 47 -49 64 -46 22
-100 20 -166 -7z"/>
<path d="M356 949 c-83 -73 -110 -156 -82 -253 16 -55 38 -78 56 -60 6 6 3 26
-5 49 -33 92 -5 184 72 238 43 31 53 59 22 65 -8 1 -37 -16 -63 -39z"/>
<path d="M433 920 c-18 -10 -39 -33 -48 -51 -32 -62 -31 -223 1 -236 24 -9 27
2 25 91 -2 94 10 131 55 164 18 13 25 25 21 36 -8 21 -15 20 -54 -4z"/>
<path d="M1082 910 c-56 -38 -116 -57 -227 -72 -68 -10 -90 -17 -90 -28 0 -25
147 -18 235 10 81 26 153 73 148 97 -5 26 -20 25 -66 -7z"/>
<path d="M1172 910 c-54 -72 -183 -132 -326 -150 -70 -9 -93 -20 -82 -39 19
-29 197 3 303 54 77 38 166 117 161 144 -5 27 -33 23 -56 -9z"/>
<path d="M535 892 c-40 -25 -61 -50 -80 -95 -26 -64 -15 -167 20 -167 12 0 15
14 15 72 0 82 21 125 78 155 33 18 40 45 12 50 -8 2 -28 -5 -45 -15z"/>
<path d="M1252 860 c-57 -63 -158 -113 -307 -150 -65 -17 -127 -30 -140 -30
-29 0 -53 -26 -37 -42 23 -23 264 38 390 98 83 40 172 119 172 152 0 36 -31
25 -78 -28z"/>
<path d="M131 810 c-66 -24 -96 -43 -117 -75 -61 -93 157 -177 524 -201 98 -7
102 -8 96 -28 -21 -68 -18 -66 -91 -60 -285 23 -471 72 -493 129 -11 29 -22
31 -40 10 -11 -13 -10 -21 6 -43 46 -63 207 -110 464 -135 l124 -12 8 -43 c9
-56 44 -112 69 -112 25 0 24 13 -7 76 -14 29 -24 58 -22 64 2 6 68 12 172 15
371 11 620 65 680 148 18 24 18 29 6 42 -17 16 -29 10 -46 -20 -35 -65 -363
-125 -681 -125 l-122 0 16 46 c13 39 19 45 36 40 33 -8 371 13 482 30 146 23
252 59 292 99 18 18 33 41 33 50 0 47 -159 139 -181 104 -11 -18 3 -32 48 -48
52 -19 83 -40 83 -57 0 -58 -270 -117 -594 -130 l-168 -7 8 44 c5 24 9 70 9
101 0 69 -29 108 -80 108 -40 0 -70 -31 -95 -99 -25 -64 -26 -91 -2 -91 12 0
23 16 35 50 10 27 28 62 40 76 22 25 24 25 40 10 20 -20 22 -85 6 -152 l-12
-45 -81 6 c-165 13 -273 28 -364 51 -97 24 -162 56 -162 79 0 18 46 46 110 66
41 12 55 22 55 35 0 26 -21 27 -84 4z"/>
</g>
</svg>
