<?xml version="1.0" standalone="no"?>
<!DOCTYPE svg PUBLIC "-//W3C//DTD SVG 20010904//EN"
 "http://www.w3.org/TR/2001/REC-SVG-20010904/DTD/svg10.dtd">
<svg version="1.0" xmlns="http://www.w3.org/2000/svg"
 width="125.000000pt" height="124.000000pt" viewBox="0 0 125.000000 124.000000"
 preserveAspectRatio="xMidYMid meet">

<g transform="translate(0.000000,124.000000) scale(0.100000,-0.100000)"
fill="#000000" stroke="none">
<path d="M593 1035 c-42 -29 -36 -116 8 -130 16 -5 19 -16 19 -61 l0 -54 -275
0 -275 0 0 -79 c0 -70 -3 -82 -21 -95 -12 -8 -21 -25 -20 -38 1 -27 1 -62 -1
-103 0 -19 6 -34 21 -43 19 -13 21 -23 21 -128 l0 -114 570 0 570 0 0 115 c0
103 2 115 19 125 17 9 20 21 19 89 0 65 -4 83 -19 97 -16 14 -19 31 -19 96 l0
78 -275 0 -275 0 0 54 c0 44 3 56 18 61 21 6 42 45 42 76 0 29 -44 69 -77 69
-16 0 -38 -7 -50 -15z m81 -34 c37 -41 -14 -97 -60 -66 -28 18 -31 41 -7 67
21 23 45 23 67 -1z m-373 -275 c-50 -51 -19 -58 33 -7 l42 41 84 0 84 0 -33
-34 c-50 -51 -19 -58 33 -7 l42 41 84 0 84 0 -33 -34 c-50 -51 -19 -58 33 -7
l42 41 84 0 84 0 -33 -34 c-50 -51 -19 -58 33 -7 l42 41 87 0 87 0 0 -70 0
-70 -450 0 c-393 0 -450 -2 -450 -15 0 -13 59 -15 468 -15 258 0 471 -3 475
-6 14 -14 -7 -34 -37 -34 -17 0 -51 -9 -75 -20 -55 -26 -126 -25 -191 0 -64
25 -116 25 -180 0 -64 -25 -131 -25 -198 0 -66 25 -125 25 -181 0 -49 -23
-140 -27 -174 -8 -12 7 -47 17 -77 23 -36 8 -55 17 -55 26 0 11 19 15 83 17
64 2 82 6 82 17 0 12 -14 15 -60 15 l-60 0 0 70 0 70 117 0 117 0 -33 -34z
m-141 -227 c60 -28 140 -28 208 0 66 26 107 27 169 0 64 -28 144 -28 203 0 57
26 106 26 172 0 68 -28 148 -28 208 0 57 26 86 26 100 0 27 -49 32 -49 -580
-49 -612 0 -607 0 -580 49 14 26 43 26 100 0z m1020 -94 c0 -13 -34 -15 -247
-15 l-248 0 -136 -47 -136 -47 -134 47 c-74 26 -144 47 -157 47 -13 0 -22 6
-22 15 0 13 67 15 540 15 473 0 540 -2 540 -15z m-905 -93 l137 -48 137 48
136 48 248 0 247 0 0 -70 0 -70 -540 0 -540 0 0 70 c0 62 2 70 19 70 11 0 81
-22 156 -48z"/>
</g>
</svg>
