<?xml version="1.0" standalone="no"?>
<!DOCTYPE svg PUBLIC "-//W3C//DTD SVG 20010904//EN"
 "http://www.w3.org/TR/2001/REC-SVG-20010904/DTD/svg10.dtd">
<svg version="1.0" xmlns="http://www.w3.org/2000/svg"
 width="512.000000pt" height="512.000000pt" viewBox="0 0 512.000000 512.000000"
 preserveAspectRatio="xMidYMid meet">

<g transform="translate(0.000000,512.000000) scale(0.100000,-0.100000)"
fill="#000000" stroke="none">
<path d="M802 3620 c-84 -20 -162 -116 -162 -198 0 -92 65 -185 146 -210 32
-9 345 -12 1356 -12 l1314 0 53 26 c127 64 155 219 59 328 -71 81 26 76 -1437
75 -713 -1 -1311 -5 -1329 -9z"/>
<path d="M4057 3623 c-4 -3 -7 -100 -7 -215 l0 -208 215 0 215 0 0 215 0 215
-208 0 c-115 0 -212 -3 -215 -7z"/>
<path d="M765 2753 c-141 -74 -167 -249 -52 -350 20 -18 54 -37 74 -43 27 -8
430 -10 1370 -8 l1331 3 44 30 c124 88 124 262 0 350 l-44 30 -1346 2 c-1213
2 -1350 1 -1377 -14z"/>
<path d="M4050 2560 l0 -210 215 0 215 0 0 210 0 210 -215 0 -215 0 0 -210z"/>
<path d="M780 1907 c-19 -6 -53 -30 -75 -52 -99 -98 -78 -261 43 -332 l47 -28
1314 -3 c1486 -3 1388 -8 1459 73 96 110 68 265 -59 329 l-53 26 -1320 -1
c-939 -1 -1331 -4 -1356 -12z"/>
<path d="M4052 1708 l3 -213 213 -3 212 -2 0 215 0 215 -215 0 -215 0 2 -212z"/>
</g>
</svg>
