<?xml version="1.0" standalone="no"?>
<!DOCTYPE svg PUBLIC "-//W3C//DTD SVG 20010904//EN"
 "http://www.w3.org/TR/2001/REC-SVG-20010904/DTD/svg10.dtd">
<svg version="1.0" xmlns="http://www.w3.org/2000/svg"
 width="96.000000pt" height="97.000000pt" viewBox="0 0 96.000000 97.000000"
 preserveAspectRatio="xMidYMid meet">

<g transform="translate(0.000000,97.000000) scale(0.100000,-0.100000)"
fill="#000000" stroke="none">
<path d="M425 805 c-14 -13 -25 -33 -25 -44 0 -13 -12 -27 -32 -37 -47 -23
-77 -53 -101 -99 -18 -34 -22 -62 -25 -180 l-4 -140 -56 -57 -56 -58 334 0
334 0 -56 57 -56 58 -4 140 c-3 118 -7 146 -25 180 -24 46 -54 76 -100 99 -21
10 -33 24 -33 37 0 21 -42 69 -60 69 -6 0 -22 -11 -35 -25z m55 -55 c0 -30 4
-40 16 -40 33 0 96 -46 120 -86 22 -38 24 -51 24 -184 l0 -144 32 -33 32 -33
-244 0 -244 0 32 33 32 33 0 144 c0 133 2 146 24 184 24 40 87 86 120 86 12 0
16 10 16 40 0 33 3 40 20 40 17 0 20 -7 20 -40z"/>
<path d="M372 134 c5 -29 55 -58 95 -57 27 1 44 8 60 28 13 14 23 30 23 36 0
16 -25 10 -43 -11 -10 -12 -29 -20 -47 -20 -18 0 -37 8 -47 20 -21 24 -46 26
-41 4z"/>
</g>
</svg>
