<?xml version="1.0" standalone="no"?>
<!DOCTYPE svg PUBLIC "-//W3C//DTD SVG 20010904//EN"
 "http://www.w3.org/TR/2001/REC-SVG-20010904/DTD/svg10.dtd">
<svg version="1.0" xmlns="http://www.w3.org/2000/svg"
 width="512.000000pt" height="512.000000pt" viewBox="0 0 512.000000 512.000000"
 preserveAspectRatio="xMidYMid meet">

<g transform="translate(0.000000,512.000000) scale(0.100000,-0.100000)"
fill="#000000" stroke="none">
<path d="M3159 4596 c-20 -7 -49 -22 -65 -33 -33 -24 -142 -136 -166 -172
l-17 -24 -48 43 c-66 59 -115 80 -189 80 -87 0 -143 -31 -246 -138 -86 -89
-108 -131 -108 -202 0 -89 7 -98 327 -420 167 -168 303 -310 303 -315 0 -6
-279 -289 -620 -630 l-620 -620 -302 302 c-295 293 -305 302 -362 318 -113 33
-186 3 -309 -124 -73 -76 -88 -98 -103 -146 -27 -95 -5 -167 79 -261 l45 -50
-35 -19 c-59 -32 -180 -170 -199 -228 -20 -59 -14 -128 15 -184 11 -21 101
-119 200 -217 l180 -180 -50 -54 c-81 -89 -97 -187 -46 -287 26 -52 140 -170
194 -202 59 -34 147 -42 210 -18 26 10 69 39 96 63 l48 45 182 -181 c125 -124
196 -187 227 -201 60 -27 146 -28 204 -1 42 20 207 179 218 210 4 11 18 3 54
-32 62 -59 123 -87 192 -88 78 0 117 21 216 118 126 124 155 196 124 306 -10
34 -61 91 -317 349 l-306 307 623 623 622 622 297 -297 c164 -163 314 -304
333 -314 24 -13 57 -19 105 -19 90 0 132 24 242 138 69 72 85 95 99 143 27 93
6 164 -76 257 l-43 48 24 17 c48 33 162 148 185 188 31 53 41 129 24 191 -12
42 -36 71 -206 243 l-192 195 49 53 c84 91 98 189 42 294 -31 57 -153 177
-208 205 -100 51 -199 35 -287 -46 l-53 -49 -195 192 c-158 156 -203 195 -236
204 -53 15 -109 15 -155 -2z m704 -734 c508 -508 587 -591 587 -617 0 -23 -17
-46 -84 -113 -79 -79 -87 -84 -117 -78 -25 5 -155 128 -608 577 -317 315 -581
581 -588 593 -23 40 -15 64 50 132 75 81 113 107 147 99 16 -4 246 -227 613
-593z m-1160 467 c32 -16 1606 -1589 1623 -1622 16 -31 11 -87 -8 -87 -6 0
-42 -29 -79 -65 -54 -52 -73 -65 -99 -65 -28 0 -82 50 -509 470 -263 258 -629
624 -814 814 -273 279 -337 350 -337 371 0 20 19 47 73 102 87 91 109 103 150
82z m1387 -244 c64 -64 74 -79 74 -110 0 -27 -9 -44 -39 -75 l-39 -40 -113
112 -113 112 33 34 c67 71 97 65 197 -33z m-905 -905 l110 -110 -623 -623
-622 -622 -112 113 -113 112 620 620 c341 341 622 620 625 620 3 0 55 -50 115
-110z m-1775 -942 c225 -220 594 -589 820 -819 369 -376 410 -422 410 -450 0
-27 -13 -46 -78 -111 -67 -67 -83 -78 -113 -78 -32 0 -86 52 -851 817 -766
766 -818 820 -818 852 0 30 11 46 78 113 65 65 84 78 111 78 28 0 73 -41 441
-402z m67 -750 c622 -622 613 -611 580 -674 -18 -33 -111 -126 -144 -143 -13
-6 -33 -9 -46 -6 -13 4 -284 267 -610 593 -536 536 -587 590 -587 620 0 26 13
46 61 100 81 88 87 92 128 92 34 0 68 -32 618 -582z m-257 -492 c-31 -32 -47
-40 -75 -40 -31 0 -46 10 -112 77 -67 66 -77 81 -77 112 0 27 9 44 39 75 l39
40 113 -112 113 -113 -40 -39z"/>
</g>
</svg>
