<?xml version="1.0" standalone="no"?>
<!DOCTYPE svg PUBLIC "-//W3C//DTD SVG 20010904//EN"
 "http://www.w3.org/TR/2001/REC-SVG-20010904/DTD/svg10.dtd">
<svg version="1.0" xmlns="http://www.w3.org/2000/svg"
 width="96.000000pt" height="97.000000pt" viewBox="0 0 96.000000 97.000000"
 preserveAspectRatio="xMidYMid meet">

<g transform="translate(0.000000,97.000000) scale(0.100000,-0.100000)"
fill="#000000" stroke="none">
<path d="M410 859 c-204 -34 -352 -241 -319 -448 13 -87 42 -144 103 -210 91
-96 218 -141 345 -120 87 13 144 42 210 103 124 118 161 305 89 456 -31 64
-114 147 -178 180 -49 25 -153 52 -184 49 -6 -1 -36 -5 -66 -10z m191 -54 c87
-31 169 -108 206 -195 57 -135 27 -287 -77 -390 -139 -140 -361 -140 -500 0
-140 139 -140 361 0 500 97 98 241 130 371 85z"/>
<path d="M445 663 c-29 -7 -75 -54 -75 -75 0 -11 7 -18 20 -18 11 0 20 6 20
14 0 20 39 46 70 46 40 0 70 -26 70 -62 0 -25 -10 -41 -50 -78 -36 -33 -50
-54 -50 -73 0 -20 5 -27 20 -27 14 0 20 7 20 21 0 13 19 38 46 63 25 22 50 52
55 65 13 32 -5 85 -35 104 -27 18 -82 28 -111 20z"/>
<path d="M447 307 c-8 -21 8 -39 29 -35 27 5 25 42 -2 46 -12 2 -24 -3 -27
-11z"/>
</g>
</svg>
