<?xml version="1.0" standalone="no"?>
<!DOCTYPE svg PUBLIC "-//W3C//DTD SVG 20010904//EN"
 "http://www.w3.org/TR/2001/REC-SVG-20010904/DTD/svg10.dtd">
<svg version="1.0" xmlns="http://www.w3.org/2000/svg"
 width="512.000000pt" height="512.000000pt" viewBox="0 0 512.000000 512.000000"
 preserveAspectRatio="xMidYMid meet">

<g transform="translate(0.000000,512.000000) scale(0.100000,-0.100000)"
fill="#000000" stroke="none">
<path d="M2498 4921 l-33 -29 0 -365 0 -365 24 -26 c44 -47 112 -44 153 8 16
19 18 55 18 384 l0 364 -29 29 c-40 40 -89 40 -133 0z"/>
<path d="M761 4203 c-29 -27 -35 -43 -32 -92 1 -29 347 -383 392 -402 63 -25
129 22 129 93 0 42 -3 45 -193 235 -181 181 -195 193 -230 193 -26 0 -45 -8
-66 -27z"/>
<path d="M4245 4211 c-53 -33 -363 -354 -370 -383 -19 -77 46 -142 122 -123
28 7 324 290 374 359 43 58 34 123 -22 152 -38 19 -68 18 -104 -5z"/>
<path d="M2499 3932 c-82 -73 5 -204 104 -157 64 30 77 108 26 156 -41 39 -87
39 -130 1z"/>
<path d="M1268 3490 c-44 -13 -94 -48 -120 -83 -62 -82 -583 -894 -594 -926
-7 -20 -13 -52 -14 -72 -1 -92 -18 -71 943 -1149 501 -563 930 -1037 952
-1052 50 -35 126 -46 191 -28 34 10 64 30 105 69 109 105 1811 2026 1827 2061
21 49 26 108 13 156 -10 39 -567 911 -614 963 -12 13 -44 34 -72 47 l-50 24
-1270 -1 c-698 0 -1282 -4 -1297 -9z m1058 -272 c-247 -383 -409 -633 -411
-636 -2 -2 -436 664 -459 706 -6 9 89 12 458 12 l466 0 -54 -82z m1344 77 c0
-7 -439 -687 -453 -702 -9 -9 -50 46 -171 235 -88 136 -193 298 -233 360 l-73
112 465 0 c256 0 465 -2 465 -5z m-2171 -445 l230 -355 -235 -3 c-129 -1 -340
-1 -469 0 l-234 3 232 357 c128 197 235 357 239 355 4 -1 110 -162 237 -357z
m2586 23 c120 -186 225 -348 233 -360 l14 -23 -467 0 c-342 0 -466 3 -463 11
7 20 453 709 459 709 3 0 104 -152 224 -337z m-1291 -23 c124 -193 226 -353
226 -355 0 -3 -207 -5 -460 -5 -253 0 -460 2 -460 5 0 10 453 705 460 705 4 0
109 -158 234 -350z m-945 -592 c5 -18 118 -386 251 -818 132 -432 247 -805
256 -830 l14 -45 -23 25 c-32 34 -1478 1661 -1496 1683 -13 16 14 17 487 17
l500 0 11 -32z m1219 20 c-2 -7 -117 -379 -254 -825 -137 -447 -251 -813 -254
-813 -3 0 -117 366 -254 813 -137 446 -252 818 -254 825 -3 9 103 12 508 12
405 0 511 -3 508 -12z m1201 -5 c-16 -20 -1472 -1657 -1501 -1688 -18 -20 -19
-20 -9 10 6 17 121 390 256 830 135 440 251 815 256 833 l11 32 500 0 c473 0
500 -1 487 -17z"/>
<path d="M49 2475 c-55 -30 -61 -110 -13 -156 23 -21 36 -24 135 -27 60 -3
124 -1 143 2 83 16 115 109 57 167 l-29 29 -134 0 c-95 -1 -140 -5 -159 -15z"/>
<path d="M4749 2461 c-58 -58 -26 -151 57 -167 19 -3 83 -5 143 -2 99 3 112 6
135 27 31 30 42 74 26 112 -21 49 -53 59 -200 59 l-132 0 -29 -29z"/>
</g>
</svg>
