<?xml version="1.0" standalone="no"?>
<!DOCTYPE svg PUBLIC "-//W3C//DTD SVG 20010904//EN"
 "http://www.w3.org/TR/2001/REC-SVG-20010904/DTD/svg10.dtd">
<svg version="1.0" xmlns="http://www.w3.org/2000/svg"
 width="950.000000pt" height="950.000000pt" viewBox="0 0 950.000000 950.000000"
 preserveAspectRatio="xMidYMid meet">

<g transform="translate(0.000000,950.000000) scale(0.100000,-0.100000)"
fill="#000000" stroke="none">
<path d="M1985 6114 c-239 -37 -406 -98 -570 -210 -371 -254 -569 -678 -528
-1127 15 -157 82 -381 143 -477 5 -8 21 -35 36 -59 127 -209 347 -396 572
-487 244 -99 490 -119 729 -60 197 49 332 119 498 257 44 37 98 89 120 115 22
26 45 52 50 58 21 22 82 113 112 166 53 96 90 193 119 316 24 100 28 141 29
259 0 77 -4 157 -8 177 -13 63 -25 68 -147 68 -126 0 -144 -9 -132 -63 4 -18
7 -95 6 -172 0 -164 -21 -261 -83 -391 -98 -206 -246 -356 -444 -450 -115 -54
-204 -75 -353 -81 -112 -5 -147 -2 -235 17 -57 12 -108 25 -114 29 -5 4 -34
17 -62 30 -99 41 -198 108 -281 192 -101 100 -196 253 -227 364 -9 33 -20 67
-25 76 -19 35 -33 184 -26 283 10 164 64 328 152 464 51 77 86 117 158 180 55
49 187 142 200 142 3 0 36 14 73 31 145 66 387 87 569 50 102 -21 220 -69 306
-124 66 -43 178 -144 178 -161 0 -6 -38 -49 -85 -95 -151 -149 -146 -153 198
-149 243 3 260 4 273 22 11 16 14 68 14 260 0 133 -4 247 -9 255 -14 22 -62
-3 -116 -60 l-45 -48 -83 80 c-45 44 -92 86 -104 92 -12 7 -60 36 -107 64
-173 106 -369 162 -591 168 -71 2 -143 1 -160 -1z m-661 -360 c3 -8 2 -12 -4
-9 -6 3 -10 10 -10 16 0 14 7 11 14 -7z m123 -130 c-3 -3 -12 -4 -19 -1 -8 3
-5 6 6 6 11 1 17 -2 13 -5z m-289 -1479 c-3 -3 -9 2 -12 12 -6 14 -5 15 5 6 7
-7 10 -15 7 -18z m689 -181 c-3 -3 -12 -4 -19 -1 -8 3 -5 6 6 6 11 1 17 -2 13
-5z m-116 -192 c-7 -2 -18 1 -23 6 -8 8 -4 9 13 5 13 -4 18 -8 10 -11z"/>
<path d="M3560 4883 l0 -498 85 3 85 3 0 172 c0 95 4 178 9 185 5 9 25 12 61
10 l53 -3 78 -130 c43 -71 93 -154 111 -182 l33 -53 103 0 103 0 -17 33 c-10
17 -25 43 -34 57 -36 54 -182 302 -178 304 1 2 17 10 33 19 84 43 127 117 133
233 8 152 -44 246 -174 310 -59 29 -60 29 -271 32 l-213 4 0 -499z m400 322
c16 -8 42 -32 57 -52 23 -30 28 -47 28 -92 0 -65 -26 -110 -78 -138 -43 -23
-224 -34 -232 -15 -7 20 -6 298 2 305 13 14 193 7 223 -8z"/>
<path d="M6315 5357 c-20 -17 -28 -35 -32 -70 -5 -43 -3 -49 31 -83 32 -32 41
-36 72 -31 44 7 63 23 81 65 39 95 -76 185 -152 119z"/>
<path d="M7359 5351 c-23 -24 -29 -38 -29 -73 1 -47 11 -65 52 -92 61 -39 138
9 138 85 0 73 -34 109 -101 109 -20 0 -40 -10 -60 -29z"/>
<path d="M5838 5168 c-3 -113 3 -104 -71 -107 -28 -1 -28 -1 -25 -63 l3 -63
47 2 47 2 3 -217 c3 -229 6 -242 56 -299 28 -33 100 -63 152 -63 44 0 180 37
180 49 0 4 -9 34 -20 66 -12 33 -23 65 -25 72 -3 9 -11 9 -32 -2 -36 -19 -103
-19 -129 -1 -18 13 -19 28 -19 203 l0 188 93 3 92 3 0 64 0 64 -92 -2 -93 -2
0 103 0 102 -82 0 -82 0 -3 -102z"/>
<path d="M2459 5195 c-18 -14 -129 -120 -246 -235 -116 -116 -215 -210 -219
-210 -5 0 -71 63 -149 139 -84 84 -151 142 -168 146 -65 17 -137 -26 -153 -90
-13 -53 13 -88 220 -293 191 -190 205 -202 240 -202 20 0 49 6 64 14 15 8 159
147 320 308 313 315 310 310 282 382 -24 64 -129 86 -191 41z m-859 -356 c0
-6 -4 -7 -10 -4 -5 3 -10 11 -10 16 0 6 5 7 10 4 6 -3 10 -11 10 -16z"/>
<path d="M4532 5075 c-72 -20 -106 -39 -154 -87 -90 -90 -122 -246 -79 -388
19 -60 32 -83 78 -131 101 -106 234 -136 368 -83 87 35 144 87 186 171 32 64
34 74 34 169 0 95 -2 104 -35 168 -40 79 -112 148 -178 171 -68 23 -159 27
-220 10z m178 -160 c56 -29 100 -112 100 -190 0 -51 -27 -124 -58 -158 -43
-48 -146 -61 -210 -28 -61 32 -85 79 -90 174 -3 71 0 88 20 126 13 25 35 53
49 64 50 36 130 41 189 12z"/>
<path d="M7850 5084 c-137 -26 -220 -110 -220 -223 0 -93 77 -163 223 -202
119 -33 161 -91 101 -138 -54 -42 -183 -19 -255 46 -15 13 -20 11 -42 -19 -45
-60 -51 -77 -33 -97 22 -24 111 -67 169 -82 105 -26 252 18 302 91 52 74 51
167 0 234 -28 37 -106 79 -181 97 -126 31 -165 81 -103 133 23 19 42 26 74 26
45 0 127 -29 140 -50 8 -12 45 15 45 33 0 5 10 23 22 39 l22 31 -30 23 c-50
41 -169 70 -234 58z"/>
<path d="M8445 5077 c-103 -27 -161 -75 -212 -174 -36 -73 -38 -79 -38 -177 0
-94 2 -106 33 -168 60 -122 181 -198 315 -198 77 0 203 47 243 91 19 21 19 21
-49 96 -29 31 -30 31 -50 12 -12 -10 -41 -29 -65 -40 -105 -51 -236 16 -253
129 l-4 24 240 1 240 2 -3 70 c-6 124 -38 203 -110 270 -64 59 -190 86 -287
62z m158 -143 c36 -17 77 -79 77 -115 0 -18 -9 -19 -155 -19 -101 0 -155 4
-155 10 0 27 44 92 77 115 45 30 105 33 156 9z"/>
<path d="M5063 4803 c2 -166 9 -282 16 -305 26 -81 107 -138 196 -138 48 0
123 29 172 66 40 31 43 30 43 -6 l0 -30 83 0 82 0 -3 340 -3 340 -79 0 c-57 0
-80 -4 -80 -12 -1 -13 -7 -275 -9 -391 -1 -50 -5 -62 -35 -94 -30 -33 -39 -37
-94 -41 -58 -4 -63 -3 -92 26 l-30 30 -1 229 c-1 125 -1 234 0 241 1 9 -21 12
-85 12 l-86 0 5 -267z"/>
<path d="M6290 4730 l0 -340 85 0 85 0 0 340 0 340 -85 0 -85 0 0 -340z"/>
<path d="M7350 4728 l0 -343 80 0 80 0 0 343 0 342 -80 0 -80 0 0 -342z"/>
<path d="M6559 5023 c10 -21 42 -94 70 -163 29 -69 65 -154 80 -190 16 -36 43
-101 61 -145 57 -141 45 -130 132 -133 l76 -3 12 38 c7 21 23 61 35 88 12 28
32 75 45 105 47 113 78 186 99 232 11 26 21 50 21 53 0 4 14 37 30 75 17 38
30 71 30 74 0 3 -42 6 -93 6 l-92 0 -27 -82 c-66 -207 -132 -388 -140 -380 -8
8 -40 96 -83 232 -14 41 -37 110 -52 152 l-28 78 -98 0 -97 0 19 -37z"/>
</g>
</svg>
