<?xml version="1.0" standalone="no"?>
<!DOCTYPE svg PUBLIC "-//W3C//DTD SVG 20010904//EN"
 "http://www.w3.org/TR/2001/REC-SVG-20010904/DTD/svg10.dtd">
<svg version="1.0" xmlns="http://www.w3.org/2000/svg"
 width="512.000000pt" height="512.000000pt" viewBox="0 0 512.000000 512.000000"
 preserveAspectRatio="xMidYMid meet">

<g transform="translate(0.000000,512.000000) scale(0.100000,-0.100000)"
fill="#000000" stroke="none">
<path d="M1460 4991 c-186 -59 -344 -210 -483 -461 -91 -165 -180 -444 -213
-670 -22 -154 -15 -364 16 -470 26 -92 93 -220 157 -302 60 -75 180 -173 269
-217 l67 -33 -6 -102 c-3 -55 -25 -631 -49 -1280 l-42 -1178 28 -53 c17 -33
44 -64 68 -82 l41 -28 287 0 287 0 41 28 c24 18 51 49 68 82 l28 53 -42 1173
c-24 646 -45 1221 -49 1279 l-6 106 66 33 c88 45 211 145 270 219 64 82 131
210 157 302 31 107 38 316 16 470 -85 578 -369 1035 -705 1134 -72 21 -201 20
-271 -3z m270 -226 c203 -103 403 -457 481 -855 17 -87 23 -151 23 -260 1
-137 -1 -150 -30 -230 -69 -196 -187 -311 -417 -409 -36 -15 -51 -28 -61 -53
-11 -28 -7 -209 29 -1193 24 -638 46 -1224 49 -1302 l7 -143 -211 0 -210 0 6
147 c3 82 25 666 49 1298 32 871 39 1158 31 1185 -12 37 -13 38 -157 104 -89
41 -197 136 -255 223 -21 31 -52 96 -68 143 -29 81 -31 92 -30 235 1 121 6
174 27 275 90 431 300 772 525 857 56 20 147 11 212 -22z"/>
<path d="M3053 4895 c-61 -26 -60 -20 -114 -601 -61 -673 -68 -800 -45 -912
22 -106 46 -169 101 -258 52 -84 168 -197 248 -243 l57 -32 -6 -97 c-6 -118
-83 -2223 -86 -2377 -2 -101 0 -114 22 -155 14 -24 45 -58 68 -75 l44 -30 266
-3 c226 -3 273 0 309 13 52 20 109 81 123 134 8 30 -1 335 -35 1254 -25 668
-45 1242 -45 1276 l0 60 57 37 c135 86 219 181 283 319 87 185 88 273 16 1058
l-53 578 -28 29 c-36 38 -75 46 -119 25 -71 -34 -70 -17 -15 -615 61 -664 67
-781 45 -873 -40 -171 -141 -295 -304 -373 -55 -26 -76 -42 -88 -67 -14 -29
-11 -145 30 -1277 25 -685 47 -1273 49 -1307 l3 -63 -210 0 -209 0 6 137 c3
76 25 667 48 1314 50 1353 58 1205 -66 1266 -137 66 -242 185 -287 322 -32
101 -27 248 32 890 49 532 51 567 36 598 -10 22 -29 39 -51 49 -41 17 -42 17
-82 -1z"/>
<path d="M3394 4896 c-59 -26 -60 -34 -73 -561 -16 -678 -17 -640 18 -676 49
-49 134 -36 165 25 14 26 18 115 30 581 15 612 16 598 -49 629 -40 19 -51 19
-91 2z"/>
<path d="M3773 4895 c-17 -7 -39 -25 -49 -40 -16 -25 -16 -59 -5 -573 7 -301
17 -562 22 -579 29 -93 157 -99 194 -9 10 25 10 134 -1 576 -10 356 -18 555
-26 574 -12 29 -61 66 -88 66 -8 -1 -29 -7 -47 -15z"/>
</g>
</svg>
