<?xml version="1.0" standalone="no"?>
<!DOCTYPE svg PUBLIC "-//W3C//DTD SVG 20010904//EN"
 "http://www.w3.org/TR/2001/REC-SVG-20010904/DTD/svg10.dtd">
<svg version="1.0" xmlns="http://www.w3.org/2000/svg"
 width="96.000000pt" height="97.000000pt" viewBox="0 0 96.000000 97.000000"
 preserveAspectRatio="xMidYMid meet">

<g transform="translate(0.000000,97.000000) scale(0.100000,-0.100000)"
fill="#000000" stroke="none">
<path d="M246 905 c-53 -53 -34 -225 25 -225 28 0 34 24 15 71 -17 42 -14 86
7 120 23 37 -16 65 -47 34z"/>
<path d="M366 905 c-53 -53 -34 -225 25 -225 28 0 34 24 15 71 -17 42 -14 86
7 120 23 37 -16 65 -47 34z"/>
<path d="M486 905 c-53 -53 -34 -225 25 -225 28 0 34 24 15 71 -17 42 -14 86
7 120 23 37 -16 65 -47 34z"/>
<path d="M102 641 c-11 -7 -13 -38 -10 -147 3 -127 6 -143 30 -190 94 -179
324 -217 477 -78 21 19 44 48 51 64 12 29 13 29 41 15 58 -30 135 -8 165 47 8
13 13 58 14 106 0 80 -1 83 -34 120 -32 34 -38 37 -90 36 -45 0 -56 3 -59 18
-5 17 -24 18 -289 18 -155 0 -289 -4 -296 -9z m527 -163 c-4 -101 -7 -118 -31
-159 -102 -173 -367 -150 -434 38 -7 22 -13 81 -14 136 l0 97 241 0 241 0 -3
-112z m161 62 c16 -16 20 -33 20 -83 0 -72 -18 -107 -56 -107 -44 0 -64 32
-64 105 0 70 20 105 60 105 11 0 29 -9 40 -20z"/>
<path d="M72 101 c-8 -5 -12 -17 -10 -27 3 -18 18 -19 328 -19 l325 0 0 25 0
25 -315 2 c-173 2 -321 -1 -328 -6z"/>
</g>
</svg>
