<?xml version="1.0" standalone="no"?>
<!DOCTYPE svg PUBLIC "-//W3C//DTD SVG 20010904//EN"
 "http://www.w3.org/TR/2001/REC-SVG-20010904/DTD/svg10.dtd">
<svg version="1.0" xmlns="http://www.w3.org/2000/svg"
 width="188.000000pt" height="185.000000pt" viewBox="0 0 188.000000 185.000000"
 preserveAspectRatio="xMidYMid meet">

<g transform="translate(0.000000,185.000000) scale(0.100000,-0.100000)"
fill="#000000" stroke="none">
<path d="M707 1304 c-234 -50 -422 -231 -481 -460 -9 -34 -16 -78 -16 -98 l0
-36 -105 0 -105 0 0 -75 0 -75 920 0 920 0 0 75 0 75 -395 0 -395 0 0 24 c0
32 57 115 98 142 78 53 191 48 267 -11 31 -23 68 -69 77 -97 2 -4 13 -5 25 -2
18 5 22 11 17 30 -5 20 1 26 58 52 60 28 64 29 78 11 20 -24 68 -41 94 -33 70
21 89 102 37 154 -19 20 -27 36 -24 52 2 13 -5 37 -16 55 -25 40 -74 52 -119
29 -34 -18 -42 -33 -42 -85 0 -37 -1 -38 -80 -76 l-81 -37 -52 22 c-69 30
-155 30 -225 0 -85 -37 -162 -138 -162 -214 0 -14 -34 -16 -370 -16 l-370 0 0
43 c0 23 11 72 23 108 61 179 199 318 377 380 96 33 257 33 358 0 95 -31 182
-87 255 -164 53 -56 59 -59 74 -45 14 15 14 19 -6 47 -40 56 -136 132 -216
172 -131 65 -276 83 -418 53z m1007 -240 c19 -19 20 -25 3 -48 -19 -26 -61
-18 -65 12 -7 44 32 67 62 36z m-54 -123 c0 -15 -163 -82 -173 -72 -7 7 17 23
73 50 79 37 100 42 100 22z m115 -25 c0 -42 -29 -57 -56 -30 -29 29 -11 67 29
62 22 -2 27 -8 27 -32z m13 -278 l-3 -23 -865 0 -865 0 -3 23 -3 22 871 0 871
0 -3 -22z"/>
<path d="M646 1169 c-96 -39 -184 -109 -240 -193 l-27 -40 22 -12 c21 -11 26
-7 66 47 46 61 133 126 207 154 35 13 43 21 39 36 -8 28 -13 29 -67 8z"/>
<path d="M1245 870 c-40 -9 -74 -27 -107 -58 -32 -30 -35 -47 -11 -60 13 -8
24 -2 48 24 18 19 47 37 65 40 32 7 44 22 38 46 -2 10 -12 12 -33 8z"/>
</g>
</svg>
